<?xml version="1.0" standalone="no"?>
<!DOCTYPE svg PUBLIC "-//W3C//DTD SVG 20010904//EN"
 "http://www.w3.org/TR/2001/REC-SVG-20010904/DTD/svg10.dtd">
<svg version="1.0" xmlns="http://www.w3.org/2000/svg"
 width="356.000000pt" height="425.000000pt" viewBox="0 0 356.000000 425.000000"
 preserveAspectRatio="xMidYMid meet">

<g transform="translate(0.000000,425.000000) scale(0.100000,-0.100000)"
fill="#000000" stroke="none">
<path d="M1645 4060 c-540 -60 -1014 -424 -1281 -985 -147 -310 -217 -631
-217 -995 1 -370 71 -686 222 -996 114 -235 224 -387 405 -561 299 -289 676
-438 1061 -419 206 9 353 46 541 135 339 161 623 456 808 841 104 216 160 399
203 655 25 156 25 533 0 695 -55 347 -174 655 -360 929 -92 137 -314 361 -442
448 -289 194 -631 287 -940 253z m428 -64 c955 -223 1526 -1397 1227 -2522
-163 -614 -581 -1094 -1104 -1269 -155 -52 -279 -69 -471 -62 -176 6 -294 29
-439 87 -494 196 -879 665 -1037 1264 -67 254 -92 621 -60 866 64 484 248 888
546 1198 242 252 523 405 840 457 135 22 360 13 498 -19z"/>
<path d="M1762 3637 c-7 -43 -12 -87 -12 -98 0 -11 -4 -17 -10 -14 -5 3 -10
19 -10 35 0 38 -58 148 -66 126 -3 -9 -3 -31 0 -49 4 -17 9 -54 12 -82 l5 -50
-47 78 c-25 43 -48 76 -50 75 -2 -2 6 -39 17 -82 11 -43 18 -80 16 -82 -2 -3
-16 14 -31 36 -14 22 -30 40 -35 40 -4 0 -20 11 -35 25 l-26 24 0 -22 c0 -12
13 -38 28 -57 33 -40 56 -80 50 -86 -3 -2 -38 21 -78 51 -40 30 -75 55 -77 55
-2 0 24 -37 59 -82 51 -68 57 -79 33 -64 -46 30 -79 46 -95 46 -8 0 -28 7 -44
15 -28 15 -28 15 -14 -7 8 -13 30 -33 49 -45 53 -34 90 -65 85 -70 -2 -2 -38
5 -78 16 -109 31 -112 26 -18 -29 82 -48 89 -60 24 -41 -17 5 -57 6 -90 2
l-59 -7 32 -17 c18 -9 45 -17 61 -17 38 0 99 -25 80 -33 -8 -3 -45 -8 -81 -12
-37 -4 -69 -11 -72 -15 -3 -4 25 -11 62 -15 37 -4 76 -10 87 -15 17 -6 12 -9
-24 -15 -25 -4 -57 -16 -72 -26 -33 -24 -54 -24 -67 -1 -9 16 -11 16 -26 -3
-35 -43 -44 -79 -33 -123 11 -42 6 -72 -11 -72 -5 0 -7 9 -4 19 6 24 -13 85
-32 101 -11 9 -19 2 -40 -35 -17 -27 -25 -54 -22 -66 5 -20 4 -20 -13 -4 -17
15 -19 14 -39 -18 -11 -19 -21 -49 -21 -68 0 -26 -3 -30 -12 -21 -19 19 -25
15 -42 -34 -14 -40 -14 -50 -1 -80 8 -21 10 -32 3 -28 -6 4 -8 1 -5 -7 3 -8
11 -31 18 -51 l12 -36 39 25 c21 14 41 23 45 19 11 -11 -31 -60 -72 -83 l-38
-21 -25 49 c-18 38 -23 58 -17 85 4 25 10 34 21 30 21 -8 17 7 -5 21 -17 11
-21 8 -30 -19 -16 -46 -13 -79 10 -117 l20 -33 -27 21 c-38 30 -51 26 -58 -18
-7 -46 3 -78 33 -105 11 -11 21 -24 21 -29 0 -6 -8 -3 -17 5 -36 31 -65 41
-74 27 -17 -28 2 -93 39 -131 40 -43 38 -47 -10 -18 -18 11 -39 20 -45 20 -18
0 -16 -58 2 -94 19 -37 19 -39 -6 -33 -20 5 -21 3 -16 -36 2 -23 8 -50 12 -59
5 -13 2 -18 -10 -18 -14 0 -16 -6 -10 -42 4 -24 17 -53 29 -66 l21 -24 -27 7
c-32 8 -32 9 -17 -51 7 -26 22 -53 37 -64 l25 -20 -27 0 c-14 0 -26 -4 -26 -9
0 -23 25 -78 42 -93 20 -18 20 -18 -2 -18 -17 0 -20 -4 -15 -22 4 -13 15 -37
25 -54 12 -22 15 -35 8 -42 -16 -16 30 -88 66 -106 l31 -16 -27 0 c-16 0 -28
-3 -28 -8 0 -19 54 -84 78 -94 l27 -10 -24 -9 -24 -10 38 -39 c36 -37 43 -40
95 -41 l55 0 -48 -13 c-26 -7 -51 -16 -55 -20 -4 -4 10 -23 30 -42 33 -30 45
-34 90 -34 l53 0 -45 -21 -45 -20 25 -20 c56 -44 80 -51 126 -40 62 16 64 14
17 -15 -24 -14 -43 -29 -43 -33 0 -13 70 -41 103 -41 18 0 45 7 61 15 15 8 37
15 49 15 16 0 14 -4 -13 -23 -18 -12 -39 -32 -47 -44 -14 -21 -13 -22 24 -32
58 -17 84 -13 125 15 36 25 40 26 85 14 75 -20 83 -27 38 -35 -76 -12 -85 -15
-85 -31 0 -12 6 -15 25 -10 14 3 37 9 53 12 26 6 26 6 6 -9 -11 -9 -33 -19
-48 -23 -30 -7 -30 -31 0 -26 10 2 38 17 62 34 24 16 46 27 50 23 7 -7 -34
-47 -78 -77 -22 -14 -23 -17 -8 -23 23 -9 73 27 90 65 9 20 20 30 35 30 12 0
25 5 28 10 4 6 19 0 38 -14 44 -32 93 -57 101 -49 12 12 6 21 -21 28 -14 3
-36 13 -47 22 -15 11 -16 14 -4 10 9 -3 33 -9 52 -13 30 -5 35 -4 30 9 -6 17
-17 22 -77 32 -49 8 -40 21 28 36 52 12 56 11 93 -14 41 -29 67 -33 125 -16
37 10 38 11 24 32 -8 12 -29 32 -47 45 -31 21 -32 22 -9 22 13 -1 35 -7 49
-15 14 -8 36 -14 50 -15 30 0 110 30 110 41 0 5 -17 20 -37 34 l-38 27 35 -8
c19 -4 46 -7 59 -6 25 2 91 47 91 62 0 5 -16 14 -35 21 -48 18 -44 25 14 21
45 -3 53 0 88 31 21 20 35 39 31 43 -4 4 -29 13 -55 20 l-48 13 52 0 c44 1 58
6 88 32 38 34 45 56 18 61 -15 3 -13 7 9 19 26 14 78 74 78 91 0 4 -12 8 -27
8 l-28 0 32 20 c34 21 79 95 63 105 -5 3 -1 19 9 38 11 18 22 42 26 55 5 18 3
22 -16 22 -20 0 -21 1 -6 13 18 13 47 77 47 102 0 12 -7 14 -27 10 -23 -5 -25
-4 -10 5 21 13 42 54 52 99 7 33 6 34 -19 27 l-27 -7 20 28 c11 15 23 45 27
66 5 33 4 37 -14 37 -19 0 -20 2 -6 28 7 15 14 41 14 59 0 31 -1 31 -31 23
l-32 -9 21 22 c13 13 25 43 28 70 8 55 0 58 -61 26 l-40 -21 38 39 c33 35 37
44 37 91 0 60 -8 64 -57 26 -32 -24 -48 -19 -17 7 30 24 45 68 38 107 -10 54
-12 56 -52 25 l-36 -27 22 36 c25 39 27 70 11 117 -11 30 -12 31 -34 17 -22
-15 -23 -14 -16 12 8 27 -14 112 -28 112 -4 0 -12 -5 -19 -12 -9 -9 -12 -4
-12 22 0 19 -9 50 -21 69 -19 32 -21 32 -39 16 -18 -16 -18 -16 -13 4 3 12 -5
39 -22 66 -21 37 -29 44 -40 35 -19 -16 -38 -77 -32 -101 3 -10 1 -19 -4 -19
-17 0 -22 29 -12 68 11 43 1 87 -27 122 -19 23 -21 24 -31 8 -13 -23 -34 -23
-67 1 -15 10 -47 22 -72 26 -36 6 -41 9 -24 15 11 5 50 11 87 15 37 4 65 11
62 15 -3 5 -39 11 -80 15 -42 4 -77 11 -80 15 -7 11 50 30 87 30 16 0 43 8 61
17 l32 17 -59 7 c-33 4 -73 3 -90 -2 -64 -18 -59 -7 17 37 43 26 76 49 73 51
-2 3 -39 -5 -80 -16 -42 -12 -79 -21 -83 -21 -13 0 33 43 62 57 33 17 75 52
75 64 0 10 -101 -21 -130 -41 -46 -31 -56 -35 -44 -19 6 8 32 42 58 77 26 34
44 62 41 62 -4 0 -32 -19 -63 -43 -99 -75 -104 -73 -41 21 57 84 49 106 -16
44 -27 -27 -58 -59 -67 -73 -14 -20 -13 -7 7 66 14 50 25 95 25 100 0 6 -23
-28 -50 -75 l-50 -85 0 41 c0 23 5 55 11 73 6 17 8 43 5 57 -6 24 -9 22 -36
-30 -17 -31 -30 -64 -30 -75 0 -11 -3 -28 -7 -38 -5 -12 -13 17 -23 82 l-16
100 -12 -78z m-47 -73 c17 -91 39 -97 50 -11 l9 62 10 -70 11 -70 18 25 c9 13
17 35 17 48 0 28 28 97 36 89 4 -3 1 -20 -5 -38 -12 -36 -14 -88 -5 -114 5
-13 15 -5 40 36 37 60 41 56 19 -17 -8 -27 -15 -50 -15 -52 0 -14 45 27 64 57
13 20 36 45 51 55 25 17 25 16 -8 -33 -33 -48 -53 -98 -43 -108 3 -3 23 9 44
26 53 41 60 39 25 -6 -47 -61 -49 -65 -16 -57 15 4 42 17 58 29 17 12 44 25
60 29 27 6 25 3 -16 -23 -44 -28 -94 -80 -85 -88 2 -2 30 3 62 11 32 8 59 14
61 13 1 -2 -22 -16 -52 -33 -30 -16 -55 -33 -55 -37 0 -5 39 -6 88 -2 62 4 83
3 72 -4 -8 -6 -28 -11 -43 -11 -15 0 -47 -10 -70 -21 -37 -19 -40 -23 -22 -30
11 -4 34 -8 52 -8 43 -1 53 -21 11 -22 -18 -1 -44 -4 -57 -8 -21 -6 -22 -8 -8
-19 8 -7 32 -16 54 -19 40 -6 98 -31 90 -39 -2 -3 -16 0 -31 6 -32 12 -136 14
-136 2 0 -4 20 -18 45 -32 24 -13 42 -26 40 -28 -2 -3 -24 7 -48 21 -24 15
-80 38 -123 53 -67 23 -95 27 -189 27 -94 0 -122 -4 -190 -27 -44 -15 -99 -39
-123 -53 -24 -13 -45 -23 -47 -21 -2 2 16 15 40 28 25 14 45 29 45 33 0 11
-126 4 -155 -8 -18 -8 -18 -7 -6 8 7 9 29 19 50 22 20 3 52 13 71 22 35 16 35
16 10 24 -14 4 -43 8 -65 8 -30 1 -36 4 -25 11 8 5 29 10 45 11 17 0 39 4 50
9 18 7 14 10 -25 29 -25 11 -59 21 -77 21 -17 0 -35 5 -39 11 -5 9 17 10 82 4
100 -8 101 -4 17 47 -26 16 -39 27 -28 24 11 -3 40 -10 64 -16 23 -6 45 -9 47
-7 10 9 -50 69 -87 88 -22 11 -39 22 -39 24 0 12 57 -9 86 -31 38 -28 95 -45
78 -23 -6 8 -26 34 -45 59 -36 46 -29 46 34 -3 21 -16 40 -27 43 -24 10 10
-17 75 -47 113 -16 20 -29 38 -29 41 0 13 52 -34 74 -67 14 -22 34 -44 45 -49
18 -10 19 -9 4 45 -8 31 -12 58 -10 60 2 2 16 -19 32 -48 27 -50 29 -51 37
-27 9 23 6 74 -8 129 -6 24 -6 25 9 4 8 -11 19 -38 22 -60z m-433 -531 c-1
-39 1 -44 16 -38 9 4 33 9 52 13 32 5 34 4 21 -12 -21 -25 -66 -46 -99 -46
-26 0 -31 4 -36 36 -4 19 -9 41 -12 47 -2 7 5 27 17 46 19 32 22 33 31 17 6
-10 10 -39 10 -63z m168 63 c-8 -7 -45 -30 -81 -50 l-67 -37 -4 41 c-2 28 0
39 8 36 7 -3 31 2 55 9 24 8 57 14 74 14 25 1 27 -1 15 -13z m513 -7 c34 -11
69 -25 77 -30 9 -5 -100 -8 -265 -8 -296 0 -306 2 -185 40 84 27 290 26 373
-2z m220 6 c26 -8 53 -12 60 -9 9 3 12 -7 9 -36 l-4 -41 -67 37 c-36 19 -73
42 -81 50 -12 12 -11 14 10 14 14 0 46 -7 73 -15z m131 -23 c11 -22 12 -37 3
-75 -9 -40 -14 -47 -34 -47 -32 0 -85 23 -103 45 -14 17 -12 17 20 13 19 -3
43 -8 52 -12 14 -7 17 -2 16 32 0 48 10 84 23 77 5 -4 15 -18 23 -33z m-1135
-121 c1 -37 4 -42 19 -36 9 3 30 9 46 12 22 5 28 3 24 -8 -6 -19 -56 -46 -98
-52 -31 -4 -35 -2 -36 17 0 11 -3 35 -7 51 -5 22 -2 39 14 65 20 32 23 33 30
15 4 -11 8 -40 8 -64z m1236 39 c13 -24 13 -38 4 -75 -10 -41 -14 -45 -43 -45
-34 0 -96 33 -96 51 0 11 35 8 73 -6 15 -6 17 -1 17 38 0 81 16 94 45 37z
m-230 -25 l40 -35 -450 1 -450 0 40 34 40 35 370 -1 370 0 40 -34z m-1085 -71
c7 -19 10 -46 8 -59 -5 -22 -4 -22 30 -8 18 8 41 13 50 11 27 -6 -32 -55 -74
-63 -20 -3 -38 -5 -39 -3 -2 2 -9 24 -16 50 -10 36 -10 52 0 77 17 40 27 39
41 -5z m1391 5 c10 -25 10 -41 0 -77 -7 -26 -14 -48 -16 -50 -1 -2 -19 0 -39
3 -42 8 -101 57 -74 63 9 2 32 -3 50 -11 34 -14 35 -14 30 8 -5 26 15 95 28
95 4 0 13 -14 21 -31z m-197 -41 l25 -33 -187 -3 c-185 -3 -188 -2 -239 24
-45 22 -63 26 -118 22 -46 -3 -73 -10 -95 -26 -29 -22 -36 -22 -240 -20 l-209
3 25 33 25 32 494 0 494 0 25 -32z m-431 -24 c51 -26 86 -65 98 -107 14 -52 7
-64 -43 -87 -42 -19 -42 -20 -13 -20 17 0 37 -5 45 -10 13 -8 13 -12 -3 -27
-9 -10 -34 -23 -55 -29 l-37 -12 46 -1 c28 -1 51 -7 59 -16 23 -28 1 -29 -84
-7 -46 12 -99 22 -117 21 l-34 -1 40 -8 c111 -23 205 -77 205 -120 0 -24 -9
-25 -54 -6 -66 27 -192 49 -288 50 -58 1 -98 5 -98 11 0 20 48 111 75 143 34
40 85 74 140 92 l40 13 -48 13 c-79 20 -95 44 -54 82 46 43 123 54 180 26z
m-827 -49 c7 -19 14 -44 14 -55 l0 -20 41 20 c48 25 57 21 34 -13 -13 -21 -93
-64 -100 -55 -13 17 -35 76 -35 92 0 32 11 66 22 66 5 0 16 -16 24 -35z m1520
1 c5 -30 -19 -126 -32 -126 -21 0 -86 37 -99 57 -24 35 -10 41 36 15 39 -22
39 -22 39 -2 0 28 27 90 39 90 6 0 13 -16 17 -34z m-912 -41 c9 -14 26 -25 39
-25 19 -1 20 -2 5 -10 -10 -6 -119 -9 -277 -8 l-260 3 20 33 21 32 218 0 218
0 16 -25z m735 -10 l20 -35 -198 0 -199 0 -11 31 c-6 18 -11 34 -11 35 0 2 85
4 189 4 l189 0 21 -35z m237 -62 c5 -26 2 -43 -10 -62 -10 -14 -20 -34 -23
-43 -7 -23 -20 -23 -60 2 -34 20 -70 67 -60 77 4 3 24 -6 46 -20 l39 -26 6 30
c6 32 34 79 47 79 4 0 11 -16 15 -37z m-1016 -21 c0 -5 -13 -20 -28 -35 l-28
-27 -222 0 c-122 0 -222 2 -222 5 0 4 7 19 15 35 l16 30 234 0 c129 0 235 -4
235 -8z m835 -22 c8 -16 15 -31 15 -35 0 -3 -101 -5 -225 -5 l-225 0 0 35 0
35 210 0 209 0 16 -30z m-1507 -77 c11 -16 23 -38 26 -51 l8 -23 35 31 c39 34
49 33 39 -4 -5 -21 -83 -95 -89 -85 -2 2 -15 21 -30 41 -27 36 -32 52 -29 96
3 30 17 28 40 -5z m1732 -17 c0 -25 -5 -48 -11 -52 -6 -3 -19 -19 -28 -35
l-18 -29 -41 30 c-37 27 -63 72 -49 86 3 3 21 -9 40 -25 l35 -31 6 23 c7 28
43 77 57 77 5 0 9 -20 9 -44z m-1140 0 c0 -1 -5 -17 -11 -35 l-11 -31 -219 0
c-232 0 -226 -1 -213 48 6 22 6 22 230 22 123 0 224 -2 224 -4z m960 -22 c6
-14 10 -30 10 -35 0 -5 -97 -9 -239 -9 l-239 0 -6 23 c-13 48 -20 47 229 47
l235 0 10 -26z m-1565 -127 l21 -36 19 28 c10 16 27 34 38 41 19 11 19 10 13
-21 -3 -19 -22 -50 -42 -70 l-35 -36 -40 40 c-32 33 -39 47 -39 80 0 39 0 39
23 25 12 -8 31 -31 42 -51z m1785 27 c0 -29 -9 -46 -39 -79 l-39 -43 -36 37
c-38 39 -63 112 -33 95 9 -5 28 -24 41 -43 23 -30 25 -31 31 -12 8 26 53 81
66 81 5 0 9 -16 9 -36z m-970 -30 c0 -48 -2 -55 -17 -51 -108 29 -162 50 -177
66 -17 18 -17 20 1 30 10 6 57 11 106 11 l87 0 0 -56z m-236 31 c3 -8 20 -24
38 -35 l33 -20 -267 0 c-284 0 -275 -2 -262 48 6 22 7 22 229 22 189 0 224 -2
229 -15z m290 9 c14 -5 16 -32 16 -196 0 -170 -2 -192 -17 -204 -10 -7 -21
-14 -25 -14 -5 0 -8 95 -8 210 0 121 4 210 9 210 5 0 16 -3 25 -6z m730 -16
c13 -50 21 -48 -249 -48 l-255 0 0 28 c0 16 3 32 7 35 3 4 115 7 249 7 l242 0
6 -22z m-561 -36 c56 -33 30 -52 -74 -52 l-69 0 0 43 c0 24 3 46 6 50 8 7 102
-21 137 -41z m-1070 -103 c23 -23 43 -36 45 -29 7 21 50 65 57 58 14 -13 -7
-67 -40 -104 -19 -22 -34 -34 -35 -27 0 6 -16 21 -35 33 -21 13 -37 32 -41 48
-3 15 -8 35 -11 45 -8 29 17 19 60 -24z m847 6 l0 -35 -360 0 -360 0 0 35 0
35 360 0 360 0 0 -35z m808 -3 l3 -32 -363 2 -363 3 -3 27 c-3 26 -2 27 55 31
32 2 195 3 363 3 l305 -1 3 -33z m182 -4 c-5 -23 -16 -45 -26 -51 -10 -6 -28
-21 -41 -33 l-22 -22 -30 33 c-29 33 -49 90 -36 103 7 7 50 -37 57 -59 3 -8
19 3 42 29 50 55 66 55 56 0z m-1877 -75 c-8 -3 4 -20 29 -44 23 -21 42 -39
43 -39 2 0 8 13 15 30 7 16 18 35 26 41 12 9 14 5 14 -27 0 -27 -8 -48 -25
-68 -14 -16 -25 -34 -25 -39 0 -6 -10 -1 -22 10 -13 11 -33 26 -45 32 -29 15
-51 90 -31 102 7 5 18 8 23 8 6 0 5 -3 -2 -6z m887 -28 l0 -35 -365 0 -365 0
0 35 0 35 365 0 365 0 0 -35z m820 0 l0 -35 -370 0 -370 0 0 28 c0 16 3 32 7
35 3 4 170 7 370 7 l363 0 0 -35z m70 -25 c13 -33 25 -38 33 -16 7 18 76 71
83 63 3 -3 0 -22 -6 -43 -7 -28 -22 -47 -51 -67 l-41 -28 -29 33 c-20 24 -28
44 -29 72 0 32 2 36 14 27 8 -6 19 -25 26 -41z m-890 -95 l0 -35 -66 0 c-53 0
-82 -7 -157 -39 -81 -34 -110 -41 -240 -55 -192 -21 -253 -21 -261 0 -3 9 -6
49 -6 90 l0 74 365 0 365 0 0 -35z m819 -27 c0 -35 -4 -85 -7 -113 -7 -48 -8
-50 -37 -47 -40 5 -224 50 -254 63 -13 5 -60 14 -105 20 -63 8 -96 18 -146 47
-47 26 -81 38 -125 42 -53 4 -60 8 -63 28 l-3 22 370 0 371 0 -1 -62z m81 2
l12 -28 35 39 c47 51 68 52 60 2 -4 -21 -14 -42 -23 -48 -9 -5 -29 -20 -44
-33 l-28 -22 -31 42 c-21 28 -31 54 -31 77 0 33 1 34 19 17 11 -10 24 -30 31
-46z m-1760 12 l37 -37 19 34 c11 19 25 37 33 39 23 8 6 -62 -24 -103 l-27
-35 -32 25 c-59 46 -66 55 -66 85 0 40 15 38 60 -8z m1106 -59 c42 -23 88 -38
145 -47 46 -8 122 -25 169 -39 47 -14 120 -32 162 -42 88 -19 83 -6 50 -130
-25 -94 -41 -128 -58 -121 -112 43 -337 147 -369 170 -113 82 -211 160 -218
172 -7 12 -15 8 -45 -16 -36 -29 -64 -36 -97 -24 -13 6 -5 18 41 65 l58 59 51
-7 c27 -3 78 -21 111 -40z m-246 0 c0 -4 -15 -22 -32 -41 -32 -32 -32 -34 -14
-48 29 -21 98 -18 128 6 l25 19 44 -28 c70 -45 149 -120 142 -136 -9 -25 -37
-17 -99 27 l-59 41 50 -52 c41 -42 47 -53 35 -61 -23 -15 -33 -12 -75 22 l-40
33 33 -38 c18 -21 30 -42 27 -48 -9 -14 -39 -11 -61 6 -23 17 -43 20 -26 3 19
-19 14 -38 -9 -38 -12 0 -19 5 -16 13 7 19 -12 47 -31 47 -9 0 -22 10 -27 23
-7 14 -20 23 -40 25 -16 2 -37 10 -46 18 -12 11 -28 13 -52 9 -21 -4 -37 -3
-41 4 -11 18 -40 13 -76 -14 -19 -14 -40 -25 -47 -25 -10 0 -253 -84 -334
-115 -13 -5 -21 11 -42 92 -42 158 -46 147 48 155 220 19 338 40 423 73 64 25
103 34 150 34 34 1 62 -2 62 -6z m-755 -34 c4 -13 -3 -40 -20 -74 l-27 -53
-49 30 c-34 22 -52 41 -60 65 -6 19 -9 37 -6 39 7 8 48 -14 78 -43 l26 -24 18
41 c20 45 31 50 40 19z m1640 -19 l18 -41 26 24 c30 29 71 51 78 43 14 -13
-21 -77 -50 -92 -18 -9 -39 -23 -48 -30 -14 -12 -19 -8 -42 39 -27 53 -33 78
-20 90 13 13 20 7 38 -33z m-1624 -102 c2 -42 -3 -63 -22 -94 l-19 -31 -46 22
c-26 13 -53 33 -60 46 -14 25 -18 59 -8 59 12 0 50 -24 75 -47 l26 -24 17 46
c19 49 35 59 37 23z m1604 -23 l17 -44 30 29 c16 17 33 30 38 30 5 0 15 3 24
6 11 4 16 0 16 -12 -1 -34 -25 -63 -72 -87 l-48 -24 -15 24 c-25 38 -35 73
-29 99 9 35 20 30 39 -21z m-1067 -36 c-2 -12 -13 -28 -25 -36 -21 -14 -23
-14 -30 2 -4 12 1 24 16 37 30 24 43 23 39 -3z m102 -10 c0 -17 -66 -79 -84
-79 -26 0 -19 46 10 69 28 22 74 28 74 10z m687 -135 l132 -57 -26 -51 c-27
-53 -102 -176 -108 -176 -2 0 -15 20 -29 44 -26 45 -90 104 -136 125 l-25 12
25 -18 c44 -30 109 -102 130 -142 l20 -40 -26 -30 c-14 -17 -29 -31 -33 -31
-5 0 -11 22 -14 50 -8 67 -30 111 -83 162 -26 25 -39 45 -33 49 6 3 0 7 -15 7
-24 0 -22 -3 23 -44 56 -51 87 -114 95 -199 l7 -60 -32 64 c-31 62 -98 141
-120 141 -14 0 -6 -25 9 -26 7 -1 16 -2 21 -3 14 -2 63 -82 82 -135 l18 -51
-27 -22 c-15 -12 -29 -22 -32 -23 -3 0 -5 30 -6 68 0 49 -6 78 -22 110 -30 57
-36 54 -10 -5 25 -57 28 -167 5 -190 -13 -13 -15 -9 -21 32 -9 57 -37 125 -60
144 -14 11 -16 11 -16 -3 0 -9 5 -15 12 -14 18 4 47 -81 47 -138 1 -45 -2 -52
-25 -63 -25 -11 -26 -10 -20 11 4 13 9 48 11 78 2 30 2 44 -1 30 -13 -64 -35
-128 -48 -139 -8 -7 -28 -16 -45 -21 l-31 -9 20 29 c11 15 20 43 20 62 0 18
12 55 25 83 13 27 22 51 20 53 -9 9 -56 -9 -75 -28 -20 -20 -20 -20 -50 12
-16 18 -30 43 -30 56 0 20 5 22 55 22 l55 0 0 65 0 65 -55 0 -55 0 0 55 0 55
-65 0 -65 0 0 -55 0 -55 -55 0 -55 0 0 -65 0 -65 35 0 c19 0 34 -3 33 -7 0 -5
1 -15 5 -23 3 -8 8 -24 10 -35 13 -50 55 -156 60 -148 2 4 10 39 18 77 13 68
13 68 31 46 25 -31 22 -15 -4 29 l-23 36 -6 -56 c-3 -30 -11 -64 -17 -75 -9
-15 -11 2 -12 79 l0 97 -55 0 -55 0 0 45 0 45 55 0 55 0 0 55 0 55 45 0 45 0
0 -55 0 -55 55 0 55 0 0 -45 0 -45 -55 0 -55 0 -1 -62 c-1 -35 -3 -87 -4 -117
l-2 -54 18 34 c10 19 19 52 19 74 1 40 1 40 15 15 8 -14 15 -36 15 -50 1 -24
2 -24 13 -6 21 34 56 66 72 66 13 0 13 -6 -5 -40 -11 -21 -20 -49 -20 -61 0
-38 -31 -87 -65 -103 -47 -23 -189 -22 -235 2 -40 19 -70 71 -70 120 0 17 2
32 5 32 2 0 21 -17 43 -38 l38 -37 -1 87 c0 58 -3 83 -10 77 -5 -6 -10 -34
-10 -63 0 -48 -2 -53 -17 -45 -10 5 -21 21 -24 35 -5 19 -9 22 -20 13 -25 -21
-27 -74 -5 -123 11 -25 17 -46 13 -46 -13 0 -46 63 -64 125 l-18 60 6 -50 c3
-27 14 -67 24 -87 19 -40 12 -42 -39 -9 -22 14 -23 19 -18 85 2 39 7 80 11 91
3 11 0 7 -8 -10 -8 -16 -18 -56 -22 -88 -10 -84 -27 -57 -32 50 -3 80 -1 93
22 138 21 38 22 44 6 25 -33 -41 -53 -124 -45 -188 l7 -56 -34 26 c-26 21 -32
32 -30 55 5 42 45 124 83 168 28 34 29 36 5 15 -40 -35 -66 -74 -93 -139 l-24
-56 6 60 c11 105 33 154 93 212 48 47 52 53 31 52 -13 0 -18 -3 -11 -6 7 -3
-6 -21 -37 -49 -54 -49 -78 -97 -87 -179 -4 -30 -10 -55 -14 -55 -11 0 -60 59
-60 72 0 33 79 131 144 179 41 31 38 41 -4 13 -45 -30 -102 -88 -131 -133 -41
-63 -36 -45 13 50 50 95 115 160 183 180 64 19 56 32 -17 27 -84 -5 -163 -43
-233 -110 -37 -36 -58 -51 -64 -44 -16 19 -41 88 -36 96 7 11 186 81 276 108
63 20 68 20 102 4 20 -9 38 -25 40 -34 3 -10 13 -21 24 -24 10 -3 30 -12 45
-20 14 -8 33 -11 41 -8 9 3 27 -2 41 -11 23 -15 28 -15 55 -2 20 10 45 13 71
10 38 -5 65 2 110 28 8 5 29 15 46 23 17 8 35 19 38 25 4 6 15 11 25 11 10 0
26 8 35 19 16 18 18 17 79 -14 34 -18 121 -59 194 -91z m-1297 72 c0 -19 -8
-51 -18 -73 l-17 -39 -53 23 c-40 17 -56 31 -67 56 -7 17 -12 34 -10 36 9 8
56 -11 83 -34 l30 -25 6 25 c20 79 46 96 46 31z m685 33 c13 -20 -61 -79 -100
-79 -26 0 -17 26 20 59 36 31 68 40 80 20z m875 -78 c0 -8 14 -1 35 18 20 17
47 31 60 31 24 0 25 -1 12 -32 -10 -25 -27 -40 -67 -59 l-55 -27 -17 37 c-17
38 -23 102 -10 115 7 8 41 -59 42 -83z m-823 23 c5 -16 -61 -56 -81 -48 -22 8
-20 15 12 41 28 23 63 27 69 7z m-347 -42 c-59 -23 -108 -73 -156 -162 -22
-40 -44 -75 -50 -77 -5 -2 -21 15 -33 38 l-23 41 69 67 c71 71 147 110 208
110 28 0 26 -2 -15 -17z m-362 -32 c2 -19 -2 -52 -8 -75 l-12 -41 -51 17 c-37
12 -59 27 -75 50 l-24 34 27 3 c14 2 42 -6 61 -17 44 -26 44 -26 44 2 1 67 32
89 38 27z m1486 18 c3 -13 6 -33 6 -45 0 -28 0 -28 44 -2 19 11 47 19 61 17
l27 -3 -24 -35 c-17 -25 -34 -36 -62 -42 -22 -5 -45 -13 -51 -18 -8 -7 -16 5
-28 41 -8 28 -14 57 -11 65 2 8 6 21 9 29 7 22 22 18 29 -7z m-47 -141 l5 -45
34 20 c20 11 46 18 65 16 l33 -3 -33 -37 c-27 -31 -40 -38 -70 -38 -20 0 -42
-5 -48 -11 -19 -19 -37 83 -23 127 15 45 30 33 37 -29z m-1386 26 c8 -20 7
-43 -1 -80 -10 -47 -13 -52 -30 -43 -10 6 -32 10 -47 10 -33 0 -53 14 -78 53
l-17 27 29 0 c16 0 45 -9 66 -19 l37 -19 0 33 c0 66 22 86 41 38z m67 -156 l4
-64 -58 4 c-57 5 -103 26 -112 51 -6 20 47 25 89 9 l40 -16 -7 44 c-8 54 2 74
24 51 10 -10 18 -39 20 -79z m1258 32 l-7 -48 40 16 c23 9 50 13 66 9 57 -14
-5 -62 -87 -68 l-58 -5 0 56 c0 35 6 65 16 79 24 34 37 17 30 -39z m-716 -76
c0 -35 -3 -44 -10 -33 -13 20 -13 80 0 80 6 0 10 -21 10 -47z m-474 -14 c8
-16 14 -46 14 -69 l0 -40 -60 0 c-47 0 -68 5 -90 22 -17 12 -30 25 -30 29 0
13 65 19 98 10 l32 -10 -7 57 c-6 53 -5 56 11 43 10 -8 24 -27 32 -42z m1124
28 c0 -12 -4 -37 -9 -55 -9 -31 -9 -32 17 -25 28 8 102 7 110 -1 2 -3 -9 -16
-24 -30 -25 -22 -37 -25 -93 -23 l-63 2 4 50 c6 70 58 145 58 82z m-1020 -166
c0 -16 2 -35 5 -43 4 -10 -10 -16 -51 -24 -47 -9 -61 -8 -87 6 -17 9 -33 22
-35 28 -4 13 57 26 98 20 25 -4 30 -2 24 11 -3 9 -8 34 -11 56 l-5 40 31 -33
c20 -21 31 -43 31 -61z m926 50 c-3 -22 -8 -45 -11 -53 -4 -10 4 -13 35 -10
44 4 90 -4 90 -16 0 -4 -14 -16 -31 -26 -24 -14 -42 -16 -89 -11 l-58 7 5 41
c6 45 38 107 55 107 7 0 8 -15 4 -39z m-852 -63 c15 -13 32 -43 39 -69 l14
-45 -59 -19 c-57 -18 -60 -18 -96 0 l-37 18 40 18 c22 10 52 19 68 19 l27 0
-20 40 c-32 64 -23 79 24 38z m766 10 c0 -7 -9 -28 -20 -46 -11 -18 -20 -35
-20 -37 0 -3 15 -5 33 -5 17 -1 48 -9 67 -19 l35 -19 -37 -18 c-36 -17 -40
-17 -95 1 -32 11 -59 20 -60 20 -2 1 4 23 13 48 19 57 84 114 84 75z m-632
-92 c39 -35 65 -96 42 -96 -6 0 -28 -12 -49 -26 -31 -20 -46 -24 -75 -19 -20
4 -39 11 -41 16 -7 10 34 38 80 54 l36 12 -31 38 c-16 21 -30 42 -30 47 0 14
42 -2 68 -26z m508 6 c-8 -16 -22 -34 -30 -41 -23 -20 -20 -28 15 -35 36 -7
92 -44 84 -56 -3 -4 -21 -11 -40 -14 -30 -6 -44 -2 -85 25 -28 18 -50 34 -50
37 0 17 46 81 68 95 42 26 55 22 38 -11z m-387 -64 c-16 -10 -27 -23 -24 -28
3 -6 4 -10 0 -10 -6 0 -45 61 -45 71 0 3 22 1 50 -5 l49 -10 -30 -18z m267 4
c-19 -36 -36 -49 -36 -27 0 8 -12 21 -26 27 -26 12 -26 13 22 23 27 6 50 10
52 9 2 -1 -4 -16 -12 -32z m-126 -17 c23 -28 8 -48 -38 -49 -33 -1 -44 3 -48
18 -12 37 59 63 86 31z m58 -18 c-5 -34 -28 -33 -28 2 0 23 4 29 16 24 8 -3
14 -15 12 -26z m-166 -7 c4 -28 4 -29 -14 -13 -21 19 -24 43 -4 43 8 0 16 -13
18 -30z m92 -49 c3 -5 -1 -14 -9 -21 -12 -10 -18 -10 -30 0 -18 15 -11 30 15
30 10 0 21 -4 24 -9z"/>
<path d="M1635 3320 c-12 -4 -27 -16 -35 -26 -14 -16 -13 -16 9 -5 15 8 45 12
77 9 30 -3 54 -3 54 -2 0 1 -7 10 -16 18 -17 17 -56 20 -89 6z"/>
<path d="M1833 3323 c-13 -2 -23 -11 -23 -18 0 -11 11 -13 48 -8 30 3 58 1 71
-7 32 -17 37 -6 6 14 -28 19 -69 26 -102 19z"/>
<path d="M1643 3263 c-12 -2 -27 -12 -35 -20 -11 -15 -11 -16 6 -10 12 5 26 1
37 -9 18 -16 20 -16 38 0 11 10 25 15 30 11 15 -9 14 8 -1 23 -12 12 -33 13
-75 5z"/>
<path d="M1824 3249 c-19 -21 -19 -22 2 -15 15 4 24 2 28 -9 7 -20 33 -19 45
3 9 15 13 15 33 4 19 -11 18 -8 -5 12 -35 32 -77 34 -103 5z"/>
<path d="M1500 1328 c-10 -21 -10 -22 3 -5 11 14 16 15 20 5 4 -8 6 -7 6 5 1
24 -16 21 -29 -5z"/>
<path d="M1512 1290 c0 -14 2 -19 5 -12 2 6 2 18 0 25 -3 6 -5 1 -5 -13z"/>
<path d="M2022 1270 c0 -14 2 -19 5 -12 2 6 2 18 0 25 -3 6 -5 1 -5 -13z"/>
<path d="M390 2109 c-61 -25 -90 -82 -75 -148 l7 -31 84 0 84 0 0 45 c0 38 -3
45 -20 45 -13 0 -20 -7 -20 -20 0 -17 -7 -20 -46 -20 -44 0 -45 1 -42 28 5 41
57 64 132 59 49 -3 63 -8 83 -31 13 -15 23 -40 23 -57 0 -22 5 -29 20 -29 49
0 26 101 -33 144 -32 24 -154 33 -197 15z"/>
<path d="M3200 2074 l0 -46 -142 4 -143 3 -3 -27 -3 -28 165 0 166 0 0 70 c0
63 -2 70 -20 70 -17 0 -20 -7 -20 -46z"/>
<path d="M3021 1850 c-115 -7 -130 -13 -131 -51 0 -12 28 -28 98 -54 53 -21
123 -48 154 -60 59 -24 68 -23 68 7 0 12 -14 24 -41 34 -33 14 -40 20 -35 38
3 12 6 27 6 34 0 8 16 12 45 12 41 0 45 2 45 25 0 28 5 28 -209 15z m73 -49
c4 -5 3 -18 -1 -28 -8 -18 -10 -18 -68 3 l-60 22 50 4 c28 3 55 5 62 6 6 1 14
-2 17 -7z"/>
<path d="M442 1831 c-68 -23 -102 -55 -102 -96 0 -67 61 -102 157 -91 134 16
203 82 162 158 -25 47 -125 61 -217 29z m177 -56 c15 -15 14 -18 -7 -36 -49
-39 -189 -56 -220 -25 -15 15 -15 18 5 38 25 25 122 49 172 43 19 -2 42 -12
50 -20z"/>
<path d="M2854 1618 c-3 -11 -2 -23 3 -28 10 -9 272 -80 296 -80 15 0 18 6 17
38 0 4 -13 10 -28 15 -266 73 -281 76 -288 55z"/>
<path d="M541 1550 c-79 -27 -145 -51 -147 -53 -8 -8 28 -92 48 -114 43 -46
148 -18 148 40 0 14 4 16 19 7 28 -15 73 -12 99 6 16 11 22 25 22 55 0 42 -23
110 -37 108 -4 0 -73 -23 -152 -49z m149 -40 c0 -41 -40 -59 -77 -35 -31 21
-26 35 18 51 52 19 59 17 59 -16z m-130 -42 c0 -46 -67 -77 -98 -46 -25 25
-13 44 36 60 54 17 62 15 62 -14z"/>
<path d="M2809 1483 c-29 -75 31 -158 136 -188 68 -20 113 -14 148 20 19 20
42 75 34 81 -1 1 -12 5 -24 8 -18 6 -23 3 -23 -12 0 -52 -78 -67 -156 -31 -56
27 -76 56 -72 105 2 30 -1 39 -14 42 -12 2 -22 -6 -29 -25z"/>
<path d="M645 1293 c-77 -37 -142 -68 -143 -69 -7 -5 10 -44 19 -44 11 0 270
120 282 130 10 9 0 50 -11 50 -4 -1 -70 -31 -147 -67z"/>
<path d="M2721 1271 c-9 -16 2 -25 92 -75 80 -45 94 -56 67 -52 -19 3 -75 13
-124 21 -83 14 -90 13 -102 -3 -7 -9 -13 -19 -13 -22 -1 -3 63 -42 141 -87
138 -80 157 -86 158 -48 0 6 -43 34 -95 64 -52 29 -95 54 -95 55 0 1 46 -6
103 -16 130 -22 140 -22 154 1 11 17 -1 26 -127 100 -76 44 -141 81 -144 81
-3 0 -10 -8 -15 -19z"/>
<path d="M795 1191 c-33 -22 -95 -61 -137 -88 l-78 -49 36 -57 c37 -60 40 -62
63 -48 11 7 10 16 -9 46 -23 37 -23 38 -4 52 10 8 31 21 45 28 24 13 27 12 43
-16 18 -31 23 -33 45 -20 12 8 12 13 -3 36 -21 33 -17 45 23 68 l31 18 21 -36
c18 -30 24 -34 38 -23 9 7 17 13 19 14 3 2 -68 114 -72 114 -1 0 -28 -18 -61
-39z"/>
<path d="M2567 1042 c-15 -17 -10 -23 95 -107 154 -125 142 -118 162 -96 17
18 12 23 -108 120 -69 56 -127 101 -129 101 -2 0 -11 -8 -20 -18z"/>
<path d="M857 944 c-64 -58 -117 -109 -117 -113 0 -5 7 -14 15 -21 12 -10 23
-4 63 29 55 46 57 47 66 24 4 -11 -7 -36 -30 -70 -35 -52 -36 -54 -19 -73 17
-19 18 -19 52 28 19 26 36 59 39 73 5 21 10 25 35 21 23 -3 36 3 64 31 19 19
35 42 35 51 0 25 -25 68 -57 98 l-28 27 -118 -105z m147 14 c15 -25 -18 -68
-52 -68 -16 0 -34 6 -40 12 -10 10 -5 19 25 45 41 34 51 36 67 11z"/>
<path d="M2487 952 c-16 -17 -13 -24 48 -121 36 -56 65 -104 65 -106 0 -2 -45
30 -100 72 l-101 77 -20 -21 -21 -20 139 -96 c128 -89 139 -95 155 -80 10 9
18 21 18 26 0 14 -153 286 -161 287 -3 0 -13 -8 -22 -18z"/>
<path d="M1128 853 c-8 -10 -51 -68 -96 -129 -60 -83 -78 -114 -69 -123 20
-20 32 -11 91 74 33 47 61 84 62 82 1 -1 -11 -51 -27 -112 -28 -106 -28 -110
-10 -128 17 -18 21 -14 114 115 87 119 95 134 81 148 -14 13 -18 12 -40 -15
-13 -16 -43 -58 -66 -92 -23 -35 -43 -62 -44 -60 -1 1 11 53 28 115 23 89 27
117 17 128 -15 18 -23 18 -41 -3z"/>
<path d="M1800 837 c0 -20 65 -87 85 -87 26 0 25 18 -3 35 -15 10 -39 29 -54
43 -22 21 -28 22 -28 9z"/>
<path d="M2222 747 c-48 -51 -13 -178 69 -251 63 -58 134 -42 152 32 13 54
-56 192 -114 226 -39 23 -82 20 -107 -7z m125 -91 c35 -51 55 -109 46 -132 -9
-25 -50 -16 -78 17 -57 68 -84 148 -59 174 22 21 48 5 91 -59z"/>
<path d="M1376 695 c-49 -26 -89 -92 -107 -174 -18 -86 29 -152 95 -135 89 22
169 236 111 293 -28 28 -65 34 -99 16z m62 -51 c25 -45 -50 -214 -94 -214 -50
0 -23 140 39 208 24 26 43 28 55 6z"/>
<path d="M1980 656 c-20 -8 -34 -20 -34 -29 1 -8 19 -78 39 -156 32 -117 42
-141 57 -141 28 0 31 22 14 81 -27 89 17 92 61 5 31 -63 26 -58 56 -51 l26 7
-34 61 c-18 33 -41 64 -49 69 -14 8 -14 11 0 33 34 52 -13 136 -75 134 -14 0
-42 -6 -61 -13z m73 -38 c28 -22 32 -63 7 -88 -26 -26 -34 -20 -48 40 -8 34
-8 46 1 52 16 10 21 10 40 -4z"/>
<path d="M1710 465 l0 -165 25 0 c24 0 25 2 25 64 0 63 0 64 32 70 67 13 104
84 78 147 -17 39 -37 49 -104 49 l-56 0 0 -165z m105 101 c19 -29 11 -72 -15
-86 -34 -18 -40 -11 -40 50 0 53 2 60 20 60 11 0 27 -11 35 -24z"/>
</g>
</svg>
